<svg width="560" height="320" viewBox="0 0 560 320" fill="none" xmlns="http://www.w3.org/2000/svg">
  <defs>
    <linearGradient id="bg" x1="42" y1="20" x2="500" y2="296" gradientUnits="userSpaceOnUse">
      <stop stop-color="#FFF3F9"/>
      <stop offset="0.5" stop-color="#EEF4FF"/>
      <stop offset="1" stop-color="#EEF8FF"/>
    </linearGradient>
    <linearGradient id="panel" x1="166" y1="58" x2="378" y2="238" gradientUnits="userSpaceOnUse">
      <stop stop-color="#FF8AB0"/>
      <stop offset="1" stop-color="#6C8CFF"/>
    </linearGradient>
  </defs>
  <rect x="16" y="16" width="528" height="288" rx="36" fill="url(#bg)"/>
  <circle cx="90" cy="76" r="28" fill="#FFE3ED"/>
  <circle cx="474" cy="238" r="32" fill="#E6EEFF"/>
  <rect x="152" y="70" width="256" height="180" rx="36" fill="url(#panel)"/>
  <rect x="182" y="100" width="110" height="16" rx="8" fill="white" fill-opacity="0.92"/>
  <rect x="182" y="130" width="156" height="16" rx="8" fill="white" fill-opacity="0.72"/>
  <rect x="182" y="160" width="90" height="16" rx="8" fill="white" fill-opacity="0.72"/>
  <g transform="translate(380 88)">
    <rect x="0" y="24" width="92" height="120" rx="22" fill="#F5F8FF"/>
    <rect x="18" y="42" width="56" height="12" rx="6" fill="#6C8CFF" fill-opacity="0.24"/>
    <rect x="18" y="66" width="56" height="12" rx="6" fill="#6C8CFF" fill-opacity="0.18"/>
    <rect x="18" y="90" width="40" height="12" rx="6" fill="#6C8CFF" fill-opacity="0.18"/>
    <circle cx="72" cy="12" r="16" fill="#FFD166"/>
  </g>
  <g transform="translate(88 144)">
    <path d="M0 26C0 11.6406 11.6406 0 26 0H64C78.3594 0 90 11.6406 90 26V28C90 30.2091 88.2091 32 86 32H66L56 42L46 32H4C1.79086 32 0 30.2091 0 28V26Z" fill="#1F2937"/>
    <circle cx="30" cy="22" r="4" fill="#FFE8B2"/>
    <circle cx="60" cy="22" r="4" fill="#FFE8B2"/>
  </g>
  <g transform="translate(84 80)">
    <rect x="0" y="0" width="84" height="56" rx="18" fill="#FF8AB0"/>
    <rect x="18" y="20" width="48" height="8" rx="4" fill="white" fill-opacity="0.9"/>
    <rect x="18" y="34" width="34" height="8" rx="4" fill="white" fill-opacity="0.72"/>
  </g>
</svg>
