<svg width="320" height="220" viewBox="0 0 320 220" fill="none" xmlns="http://www.w3.org/2000/svg">
  <defs>
    <linearGradient id="bg" x1="32" y1="18" x2="286" y2="194" gradientUnits="userSpaceOnUse">
      <stop stop-color="#FDF2FF"/>
      <stop offset="0.55" stop-color="#EEF3FF"/>
      <stop offset="1" stop-color="#EEF9FF"/>
    </linearGradient>
    <linearGradient id="pad" x1="100" y1="88" x2="220" y2="172" gradientUnits="userSpaceOnUse">
      <stop stop-color="#1F2937"/>
      <stop offset="1" stop-color="#38445F"/>
    </linearGradient>
  </defs>
  <rect x="12" y="12" width="296" height="196" rx="32" fill="url(#bg)"/>
  <circle cx="66" cy="62" r="24" fill="#FFE1EC"/>
  <circle cx="258" cy="158" r="28" fill="#E6EEFF"/>
  <rect x="78" y="56" width="86" height="58" rx="18" fill="#FF8AB0"/>
  <rect x="96" y="74" width="50" height="8" rx="4" fill="white" fill-opacity="0.9"/>
  <rect x="96" y="90" width="34" height="8" rx="4" fill="white" fill-opacity="0.7"/>
  <g transform="translate(78 106)">
    <path d="M52 0H112C140.719 0 164 23.2812 164 52V54C164 82.7188 140.719 106 112 106H52C23.2812 106 0 82.7188 0 54V52C0 23.2812 23.2812 0 52 0Z" fill="url(#pad)"/>
    <circle cx="42" cy="52" r="20" fill="#FF8AB0"/>
    <path d="M42 42V62" stroke="#1F2937" stroke-width="5" stroke-linecap="round"/>
    <path d="M32 52H52" stroke="#1F2937" stroke-width="5" stroke-linecap="round"/>
    <circle cx="122" cy="44" r="10" fill="#6C8CFF"/>
    <circle cx="100" cy="62" r="10" fill="#FFD166"/>
    <circle cx="140" cy="62" r="10" fill="#7ADBA8"/>
  </g>
  <path d="M218 82L248 58" stroke="#6C8CFF" stroke-width="4" stroke-linecap="round"/>
  <path d="M230 100L264 88" stroke="#FF8AB0" stroke-width="4" stroke-linecap="round"/>
</svg>
