<svg width="320" height="220" viewBox="0 0 320 220" fill="none" xmlns="http://www.w3.org/2000/svg">
  <defs>
    <linearGradient id="bg" x1="30" y1="18" x2="286" y2="192" gradientUnits="userSpaceOnUse">
      <stop stop-color="#FFF4F9"/>
      <stop offset="1" stop-color="#EEF4FF"/>
    </linearGradient>
    <linearGradient id="card1" x1="90" y1="52" x2="220" y2="170" gradientUnits="userSpaceOnUse">
      <stop stop-color="#FF8AB0"/>
      <stop offset="1" stop-color="#FFB7CF"/>
    </linearGradient>
    <linearGradient id="card2" x1="130" y1="78" x2="242" y2="178" gradientUnits="userSpaceOnUse">
      <stop stop-color="#6C8CFF"/>
      <stop offset="1" stop-color="#A5B8FF"/>
    </linearGradient>
  </defs>
  <rect x="12" y="12" width="296" height="196" rx="32" fill="url(#bg)"/>
  <circle cx="64" cy="66" r="24" fill="#FFE1EC"/>
  <circle cx="262" cy="160" r="26" fill="#E5EDFF"/>
  <g transform="translate(74 58) rotate(-8 86 54)">
    <rect x="0" y="0" width="146" height="100" rx="26" fill="url(#card1)"/>
    <rect x="22" y="24" width="72" height="10" rx="5" fill="white" fill-opacity="0.92"/>
    <rect x="22" y="44" width="96" height="10" rx="5" fill="white" fill-opacity="0.72"/>
    <rect x="22" y="64" width="54" height="10" rx="5" fill="white" fill-opacity="0.72"/>
    <circle cx="116" cy="52" r="18" fill="#FFE8B2"/>
    <path d="M108 52H124" stroke="#FF8AB0" stroke-width="4" stroke-linecap="round"/>
    <path d="M116 44V60" stroke="#FF8AB0" stroke-width="4" stroke-linecap="round"/>
  </g>
  <g transform="translate(130 92) rotate(8 58 42)">
    <rect x="0" y="0" width="118" height="84" rx="22" fill="url(#card2)"/>
    <rect x="18" y="20" width="56" height="10" rx="5" fill="white" fill-opacity="0.9"/>
    <rect x="18" y="40" width="78" height="10" rx="5" fill="white" fill-opacity="0.72"/>
    <rect x="18" y="58" width="40" height="10" rx="5" fill="white" fill-opacity="0.72"/>
  </g>
  <path d="M44 154C44 140.193 55.1929 129 69 129H95V140C95 153.807 83.8071 165 70 165H44V154Z" fill="#FDECC1"/>
  <path d="M228 46H258C271.807 46 283 57.1929 283 71V82H257C243.193 82 232 70.8071 232 57V46H228Z" fill="#DCE6FF"/>
</svg>
