<svg width="320" height="220" viewBox="0 0 320 220" fill="none" xmlns="http://www.w3.org/2000/svg">
  <defs>
    <linearGradient id="bg" x1="40" y1="24" x2="276" y2="198" gradientUnits="userSpaceOnUse">
      <stop stop-color="#FFF5FA"/>
      <stop offset="1" stop-color="#EEF5FF"/>
    </linearGradient>
    <linearGradient id="rack" x1="112" y1="52" x2="222" y2="164" gradientUnits="userSpaceOnUse">
      <stop stop-color="#6C8CFF"/>
      <stop offset="1" stop-color="#89A1FF"/>
    </linearGradient>
  </defs>
  <rect x="12" y="12" width="296" height="196" rx="32" fill="url(#bg)"/>
  <circle cx="62" cy="54" r="18" fill="#FFD7E6"/>
  <circle cx="258" cy="164" r="28" fill="#E5EDFF"/>
  <rect x="98" y="44" width="124" height="132" rx="28" fill="url(#rack)"/>
  <rect x="118" y="64" width="84" height="24" rx="10" fill="white" fill-opacity="0.92"/>
  <rect x="118" y="102" width="84" height="24" rx="10" fill="white" fill-opacity="0.8"/>
  <rect x="118" y="140" width="84" height="18" rx="9" fill="white" fill-opacity="0.68"/>
  <circle cx="144" cy="76" r="4" fill="#FF8AB0"/>
  <circle cx="160" cy="76" r="4" fill="#FFD166"/>
  <circle cx="176" cy="76" r="4" fill="#7ADBA8"/>
  <path d="M48 154C48 130.804 66.804 112 90 112H106V130C106 153.196 87.196 172 64 172H48V154Z" fill="#EAF0FF"/>
  <path d="M214 96H246C263.673 96 278 110.327 278 128V140H246C228.327 140 214 125.673 214 108V96Z" fill="#FFD9E6"/>
  <path d="M90 122L108 104" stroke="#6C8CFF" stroke-width="4" stroke-linecap="round"/>
  <path d="M214 112L192 126" stroke="#FF8AB0" stroke-width="4" stroke-linecap="round"/>
</svg>
